<svg width="129" height="36" viewBox="0 0 129 36" xmlns="http://www.w3.org/2000/svg"><title>Practo Identity</title><g fill="none" fill-rule="evenodd"><path d="M-242-27h1425v90H-242z"/><g fill="#02A6D8"><path d="M38.798 4.486V9.24l.224-.36c1.98-3.2 3.96-4.8 5.938-4.8 1.544 0 3.156.78 4.835 2.344l-2.16 3.605C46.213 8.676 44.893 8 43.68 8c-1.32 0-2.463.632-3.43 1.894-.967 1.262-1.45 2.757-1.45 4.484v10.84h-4.116V4.486h4.116zm26.852 8.27v8.81c0 .707.24 1.06.72 1.06.495 0 1.267-.368 2.316-1.104v2.5c-.93.602-1.675 1.01-2.237 1.23-.564.217-1.152.326-1.767.326-1.754 0-2.788-.69-3.103-2.073-1.74 1.352-3.59 2.028-5.555 2.028-1.44 0-2.64-.477-3.6-1.43-.958-.955-1.438-2.153-1.438-3.595 0-1.307.47-2.475 1.406-3.504.937-1.03 2.267-1.844 3.992-2.445l5.24-1.804v-1.104c0-2.494-1.245-3.74-3.734-3.74-2.233 0-4.407 1.156-6.52 3.47V6.896c1.59-1.878 3.875-2.817 6.86-2.817 2.233 0 4.024.586 5.374 1.758.45.375.854.875 1.214 1.498.36.624.59 1.247.686 1.87.098.624.146 1.807.146 3.55zm-4.025 8.36v-6.152l-2.744 1.06c-1.393.555-2.38 1.115-2.956 1.678-.578.564-.866 1.266-.866 2.107 0 .856.273 1.554.82 2.095.548.54 1.256.81 2.126.81 1.304 0 2.51-.532 3.62-1.6zm26.2-.743v4.056c-2.054.765-4.063 1.148-6.027 1.148-3.24 0-5.82-.96-7.748-2.884-1.926-1.923-2.89-4.5-2.89-7.73 0-3.26.937-5.89 2.812-7.887 1.874-1.998 4.34-2.997 7.4-2.997 1.063 0 2.02.102 2.866.304.847.203 1.893.582 3.137 1.138v4.372c-2.07-1.322-3.988-1.983-5.757-1.983-1.844 0-3.358.65-4.543 1.95-1.184 1.3-1.777 2.956-1.777 4.97 0 2.117.64 3.8 1.923 5.047 1.283 1.247 3.01 1.87 5.185 1.87 1.574 0 3.38-.458 5.42-1.374zM89.58 7.776L97.27.204v4.282h6.545V8.18H97.27v10.164c0 2.374.983 3.56 2.947 3.56 1.47 0 3.02-.495 4.655-1.486v3.83c-1.574.887-3.29 1.33-5.15 1.33-1.874 0-3.433-.548-4.678-1.645-.39-.33-.712-.702-.967-1.115-.255-.414-.468-.954-.64-1.623-.173-.668-.26-1.942-.26-3.82V8.182H89.58v-.404zm28.134-3.335c3.15 0 5.765 1.018 7.85 3.054 2.083 2.036 3.125 4.593 3.125 7.673 0 2.99-1.058 5.472-3.172 7.448-2.114 1.975-4.775 2.963-7.984 2.963-3.103 0-5.697-1.003-7.78-3.008-2.085-2.006-3.127-4.51-3.127-7.516 0-3.034 1.053-5.562 3.16-7.582 2.106-2.02 4.75-3.03 7.927-3.03zm-.225 3.696c-1.965 0-3.577.646-4.836 1.938-1.26 1.292-1.89 2.937-1.89 4.935 0 1.982.645 3.6 1.935 4.856 1.288 1.254 2.945 1.88 4.97 1.88 2.008 0 3.654-.634 4.936-1.903 1.282-1.27 1.922-2.896 1.922-4.88 0-1.967-.667-3.597-2-4.89-1.336-1.29-3.015-1.937-5.04-1.937zM11.113 19.2v16.586h4.183V24.7c1.604.585 3.066.878 4.385.878 2.985 0 5.44-1 7.367-2.997 1.926-1.997 2.89-4.55 2.89-7.66 0-3.29-1.024-5.852-3.07-7.685-2.047-1.833-4.907-2.75-8.58-2.75h-7.174v7.52c1.447.55 2.476 1.954 2.476 3.598 0 1.643-1.03 3.046-2.477 3.597zm7.084-10.883h-2.9V21.07c1.258.647 2.578.97 3.957.97 1.92 0 3.49-.668 4.712-2.005 1.222-1.337 1.833-3.058 1.833-5.16 0-1.353-.29-2.547-.867-3.584-.578-1.035-1.365-1.79-2.362-2.264-.996-.473-2.454-.71-4.373-.71z"/><g transform="translate(0 5.938)"><ellipse cx="9.751" cy="9.665" rx="2.879" ry="2.884"/><ellipse cx="3.034" cy="2.934" rx="2.879" ry="2.884"/><ellipse cx="3.034" cy="16.395" rx="2.879" ry="2.884"/></g></g></g></svg>